<svg width="178" height="219" viewBox="0 0 178 219" fill="none" xmlns="http://www.w3.org/2000/svg">
<path fill-rule="evenodd" clip-rule="evenodd" d="M74.5264 0C76.6269 27.606 91.7312 45.8658 107.015 56.6953C122.298 67.5248 139.019 92.9789 142.052 105.109C142.052 93.6429 143.326 73.8953 150.333 64.3398C150.333 88.5467 163.711 105.11 172.629 122.946C190.465 162.442 152.244 218.5 152.244 218.5H102.862C114.847 213.272 137.773 183.993 118.494 155.236C118.911 168.621 105.12 176.498 98.1729 178.764C102.862 168.829 107.551 128.571 88.2725 115.5C91.9239 131.708 89.761 140.292 83.588 147.916C76.8143 156.281 57.5308 164.647 54.4044 182.946C51.2781 201.246 64.3044 211.703 72.1202 218.5H26.7501C8.06395 198.965 -19.3705 149.828 20.3799 109.568C22.291 135.05 26.7501 142.057 36.9424 147.79C39.4905 122.521 30.6995 67.2695 10.8243 53.5098C21.6539 53.5099 64.9711 59.8806 63.6973 101.924C66.6701 101.499 72.6152 97.3376 72.6153 84.0879C72.6153 67.5252 31.209 36.3104 74.5264 0Z" fill="#FF3162"/>
</svg>
