<svg width="165" height="142" viewBox="0 0 165 142" fill="none" xmlns="http://www.w3.org/2000/svg">
<path d="M149 0C157.837 2.38375e-06 165 7.16345 165 16V106C165 114.837 157.837 122 149 122H31.2041C27.6461 122 24.1894 123.186 21.3809 125.37L0 142V16C2.12619e-06 7.16345 7.16345 0 16 0H149ZM83 19C79.134 19 76 22.134 76 26V96C76 99.866 79.134 103 83 103C86.866 103 90 99.866 90 96V26C90 22.134 86.866 19 83 19ZM58 32C54.134 32 51 35.134 51 39V83C51 86.866 54.134 90 58 90C61.866 90 65 86.866 65 83V39C65 35.134 61.866 32 58 32ZM108 39C104.134 39 101 42.134 101 46V76C101 79.866 104.134 83 108 83C111.866 83 115 79.866 115 76V46C115 42.134 111.866 39 108 39ZM33 48C29.134 48 26 51.134 26 55V68C26 71.866 29.134 75 33 75C36.866 75 40 71.866 40 68V55C40 51.134 36.866 48 33 48ZM133 48C129.134 48 126 51.134 126 55V68C126 71.866 129.134 75 133 75C136.866 75 140 71.866 140 68V55C140 51.134 136.866 48 133 48Z" fill="#FF3162"/>
</svg>
