<svg width="364" height="293" viewBox="0 0 364 293" fill="none" xmlns="http://www.w3.org/2000/svg">
<path d="M263.855 0C321.844 48.6077 266.414 90.3934 266.414 112.565C266.414 130.303 274.373 135.875 278.353 136.443C276.647 80.1606 334.636 71.6329 349.133 71.6328C322.526 90.0526 310.758 164.016 314.169 197.843C327.813 190.168 333.783 180.787 336.341 146.676C389.553 200.571 352.828 266.347 327.813 292.499H267.078C277.541 283.4 294.978 269.401 290.793 244.905C286.608 220.409 260.795 209.21 251.727 198.012C243.463 187.806 240.566 176.314 245.454 154.616C219.646 172.114 225.924 226.008 232.201 239.307C222.901 236.274 204.44 225.728 204.998 207.811C179.191 246.304 209.878 285.498 225.922 292.499H102.862C114.846 287.271 137.773 257.992 118.494 229.235C118.911 242.62 105.12 250.497 98.1729 252.763C102.862 242.828 107.551 202.57 88.2725 189.499C91.9238 205.707 89.761 214.291 83.5879 221.915C76.8142 230.28 57.5308 238.646 54.4043 256.945C51.278 275.245 64.3043 285.702 72.1201 292.499H26.75C8.0639 272.964 -19.3705 223.827 20.3799 183.567C22.2909 209.049 26.7501 216.056 36.9424 221.789C39.4905 196.52 30.6994 141.269 10.8242 127.509C21.6539 127.509 64.971 133.88 63.6973 175.923C66.67 175.498 72.6151 171.337 72.6152 158.087C72.6152 141.524 31.209 110.309 74.5264 73.999C76.6268 101.605 91.7311 119.865 107.015 130.694C116.702 137.558 126.966 150.298 133.956 161.796C145.842 138.961 162.376 117.27 162.376 86.1299C171.756 98.9215 173.462 125.357 173.462 140.707C177.522 124.468 199.904 90.3936 220.364 75.8965C240.824 61.3994 261.044 36.9556 263.855 0Z" fill="#FF3162"/>
</svg>
