<svg width="181" height="208" viewBox="0 0 181 208" fill="none" xmlns="http://www.w3.org/2000/svg">
<path d="M167.784 169.715C164.995 166.026 159.732 167.08 155.828 168.348C147.434 171.077 143.493 172.792 134.509 172.348L39.3165 172.282C36.1253 172.123 33.0183 171.612 29.9837 170.656L21.6905 168.047C17.6957 166.79 12.2152 166.491 9.89075 170.537C6.73933 176.022 11.6685 181.052 16.1539 184.192C21.6554 188.042 27.9209 190.34 34.5298 191.2H143.638C151.721 190.081 159.262 186.544 165.196 180.905C168.336 177.919 170.468 173.266 167.782 169.715H167.784Z" fill="#1D1D1D"/>
<path d="M50.8172 207.403C54.7949 207.403 58.0194 204.179 58.0194 200.201C58.0194 196.224 54.7949 192.999 50.8172 192.999C46.8395 192.999 43.6149 196.224 43.6149 200.201C43.6149 204.179 46.8395 207.403 50.8172 207.403Z" fill="#1D1D1D"/>
<path d="M130.182 207.403C134.16 207.403 137.384 204.179 137.384 200.201C137.384 196.224 134.16 192.999 130.182 192.999C126.204 192.999 122.98 196.224 122.98 200.201C122.98 204.179 126.204 207.403 130.182 207.403Z" fill="#1D1D1D"/>
<path d="M68.1185 181.949C68.039 181.949 67.9573 181.949 67.8755 181.944H46.708C44.7082 181.944 42.8464 181.146 41.4681 179.697C40.0897 178.249 39.3866 176.354 39.4847 174.361C39.5361 173.336 39.5898 172.528 39.6435 171.962C39.6903 171.488 39.73 171.07 39.8678 170.794C40.3514 168.119 41.2204 166.208 42.7576 164.421L45.047 161.763H72.3468L70.5457 162.847C69.7865 163.305 69.0319 163.744 68.2984 164.153L63.4859 166.844L66.1678 167.122L66.2122 167.133C70.4546 168.278 71.646 169.787 72.5805 172.539C73.1949 174.345 73.3397 177.891 71.7465 180.118C70.8868 181.316 69.6323 181.951 68.1161 181.951L68.1185 181.949Z" fill="#1D1D1D"/>
<path d="M70.249 162.347C69.4804 162.809 68.7329 163.244 68.018 163.643L61.5984 167.234L66.0674 167.699C69.943 168.743 71.097 169.972 72.0338 172.728C72.9542 175.438 72.5571 181.367 68.1208 181.367C68.046 181.367 67.969 181.367 67.8919 181.363H46.7126C42.9141 181.363 39.8842 178.186 40.0734 174.392C40.1645 172.537 40.2836 171.039 40.4238 171.039C40.8537 168.575 41.6316 166.634 43.2061 164.804L45.3226 162.349H70.2537M74.454 161.179H44.7807L44.4302 161.585L42.3137 164.04C40.7368 165.872 39.8024 167.911 39.3025 170.631C39.2464 170.759 39.1997 170.909 39.167 171.082C39.1296 171.282 39.0946 171.551 39.0595 171.906C39.0034 172.481 38.9497 173.296 38.8983 174.333C38.7909 176.49 39.5524 178.536 41.0405 180.101C42.531 181.666 44.5424 182.531 46.7056 182.531H67.8615C67.9479 182.533 68.032 182.535 68.1161 182.535C69.8285 182.535 71.2489 181.818 72.223 180.459C73.8373 178.204 73.898 174.6 73.1364 172.352C72.0174 169.056 70.3728 167.65 66.3687 166.57L66.2776 166.547L66.1842 166.538L65.3829 166.454L68.5857 164.662C69.3192 164.251 70.0808 163.809 70.8494 163.347L74.454 161.179Z" fill="white"/>
<path d="M104.188 181.944C100.415 181.944 97.2966 179.113 96.9298 175.359L96.9018 175.06C96.6214 172.18 96.9321 169.318 97.8245 166.556C98.0675 165.804 98.3175 165.08 98.5838 164.344L98.7239 163.961H120.611L120.09 164.842C119.796 165.342 119.49 165.851 119.181 166.363C120.548 166.271 121.954 166.183 123.349 166.183C126.888 166.183 131.273 166.694 133.777 170.684L133.817 170.747L133.84 170.818C134.448 172.71 134.679 174.525 134.527 176.214C134.408 177.548 133.775 178.772 132.745 179.657C131.03 181.134 128.836 181.947 126.573 181.947H104.19L104.188 181.944Z" fill="#1D1D1D"/>
<path d="M119.585 164.543C119.097 165.367 118.602 166.194 118.097 167.019C119.8 166.909 121.592 166.767 123.347 166.767C127.304 166.767 131.086 167.496 133.28 170.995C133.978 173.168 134.053 174.92 133.941 176.16C133.833 177.347 133.261 178.436 132.359 179.214C130.75 180.601 128.694 181.363 126.568 181.363H104.186C100.733 181.363 97.8432 178.742 97.5092 175.305L97.4811 175.006C97.2101 172.219 97.5162 169.404 98.3782 166.739C98.6165 166.005 98.8664 165.276 99.1304 164.545H119.585M121.632 163.375H98.3128L98.0324 164.143C97.7615 164.888 97.5092 165.62 97.2662 166.377C96.3481 169.215 96.0304 172.156 96.3177 175.116L96.3458 175.415C96.7406 179.47 100.112 182.528 104.183 182.528H126.566C128.97 182.528 131.296 181.664 133.119 180.097C134.263 179.111 134.969 177.749 135.102 176.263C135.261 174.497 135.02 172.602 134.389 170.635L134.345 170.495L134.268 170.371C131.612 166.138 127.035 165.596 123.344 165.596C122.309 165.596 121.272 165.645 120.251 165.706C120.366 165.515 120.478 165.323 120.59 165.136L121.632 163.375Z" fill="white"/>
<path d="M164.135 9.16294C163.49 8.86392 162.304 9.02278 161.584 9.41291C156.045 12.4265 151.198 16.2063 146.248 20.4557C152.66 21.8597 158.206 24.0323 163.409 28.0668C164.224 24.4855 167.034 10.5039 164.135 9.16294Z" fill="#1D1D1D"/>
<path d="M143.918 43.9804L148.268 46.132C147.402 49.489 146.811 52.7993 148.032 56.175C149.628 60.5926 154.071 64.043 158.933 63.9215C163.85 63.8001 167.763 59.845 168.756 55.2405L163.832 51.8835C164.023 54.0795 163.355 60.7888 160.953 60.7958C157.928 60.8051 157.968 51.9419 159.346 49.0405C154.604 46.6553 149.904 44.5224 144.935 42.5204C144.61 42.3895 143.984 42.4806 143.764 42.6675C143.547 42.8544 143.647 43.8473 143.916 43.9781L143.918 43.9804Z" fill="white"/>
<path d="M133.224 8.63495C129.355 14.6271 127.084 25.1513 126.148 32.1012C131.166 28.6158 135.871 26.1465 141.367 23.8991C139.604 19.0143 135.492 10.8099 133.226 8.63495H133.224Z" fill="white"/>
<path d="M137.985 122.317C144.904 122.112 151.649 121.628 158.435 120.937C159.22 121.93 160.164 122.922 161.133 123.535C163.537 125.055 165.864 124.065 167.759 122.366C170.992 122.701 173.571 118.056 174.113 115.676C174.73 112.971 173.377 110.303 171.585 108.539C167.782 104.792 162.853 104.988 158.43 107.53L143.848 106.918L137.919 96.6201C135.156 103.22 129.18 113.246 126.895 116.286C128.509 118.507 133.836 122.444 137.985 122.32V122.317Z" fill="#1D1D1D"/>
<path d="M139.898 89.8875C150.656 90.0837 161.93 87.7406 170.363 80.9004C174.673 77.4032 177.222 73.8407 179.177 68.7783C179.836 67.0729 181.439 64.606 180.883 62.5502C180.205 60.0389 176.4 61.1789 174.68 58.8592C172.302 55.647 176.61 52.5283 173.526 42.9876C171.363 36.2946 166.616 31.05 160.503 27.6019C155.725 24.9084 150.92 22.7218 145.423 21.813C143.505 16.6035 138.608 4.27111 134.976 0.682831C132.112 -2.14854 126.692 4.61451 124.739 6.59321C118.95 12.4639 114.885 19.2199 110.276 25.9666C108.351 28.784 105.13 30.5594 102.985 33.3651C98.5604 39.1587 95.3015 45.4896 94.54 53.0703L83.8476 51.0028C83.1397 50.865 82.5977 51.8578 82.7379 52.4278C82.8337 52.825 83.4808 53.3669 84.0111 53.4604L94.3624 55.2826L94.5587 61.1018L83.649 62.973C83.2168 63.0478 82.9225 64.2042 83.1421 64.5569C83.3289 64.8583 84.0975 65.2227 84.49 65.155L95.0235 63.3118C96.0724 66.7926 98.1352 71.1168 100.006 73.2403C101.878 75.3638 110.306 81.7951 110.306 81.7951C106.186 80.592 102.936 78.5503 98.46 74.7261C89.793 74.6747 82.1492 74.3032 73.286 75.1512C67.5812 75.6979 65.6819 76.2305 61.6474 79.8281C55.8936 84.9582 50.6256 90.308 45.1311 95.8492C41.5568 95.8422 38.7512 97.634 37.0294 100.521C34.9713 103.977 35.8964 107.299 38.0924 110.279C39.7277 112.496 41.5545 113.038 43.7831 114.052C46.4533 115.265 49.3501 116.491 51.49 113.342C55.7347 113.634 58.802 109.88 58.2788 105.759L57.9891 103.47L73.0897 93.5435L93.136 95.5666C93.6616 95.6203 94.0003 96.1506 93.8251 96.6505C93.699 97.0079 93.3462 97.2345 92.9678 97.1925C90.7181 96.9519 83.3079 96.1623 82.7636 96.1319C74.4891 103.306 65.6282 112.151 60.7948 122.18C44.8905 130.653 23.2767 130.587 14.1308 112.637C12.4255 109.291 10.0987 105.859 6.01281 106.233C4.01543 106.415 2.07879 107.563 0.985489 109.462C-1.94634 114.557 2.27035 121.217 5.70912 125.146C18.9853 140.322 40.4215 142.653 58.3769 134.22L59.8089 133.351C59.7669 133.398 59.7318 133.475 59.7038 133.566C59.8042 133.521 59.8907 133.486 59.9538 133.468C60.3229 133.351 60.6569 133.493 60.8204 133.795C64.7778 141.072 71.5105 144.973 79.1006 147.739C84.233 149.61 89.272 151.11 94.596 152.337L103.242 154.327L99.7448 163.167C99.2706 164.368 98.8594 165.538 98.474 166.729C97.612 169.395 97.3059 172.21 97.5769 174.997L97.6049 175.296C97.939 178.732 100.829 181.353 104.282 181.353H126.664C128.79 181.353 130.846 180.59 132.455 179.204C133.357 178.429 133.929 177.34 134.037 176.153C134.144 174.966 134.074 173.158 133.376 170.986C130.208 165.935 123.732 166.655 118.193 167.012C121.77 161.16 124.987 155.343 126.982 148.951C127.991 145.723 127.351 142.621 124.902 140.394C121.034 136.871 115.343 133.047 112.346 131.106C109.601 129.328 102.167 125.509 99.7775 124.291C99.4178 124.109 99.2753 123.663 99.4972 123.327C99.6841 123.044 100.046 122.951 100.343 123.1C102.609 124.247 112.238 129.13 113.121 129.73C118.35 125.485 123.587 118.937 126.012 115.573C128.437 112.209 136.284 98.0031 139.903 89.8804L139.898 89.8875ZM174.846 62.7745C175.666 61.4382 178.283 61.7513 179.329 62.5035C179.759 64.3046 178.949 65.982 177.584 67.4397C176.257 66.608 173.896 64.321 174.846 62.7721V62.7745ZM174.395 75.7189C174.356 75.9852 173.725 76.5038 173.522 76.331C172.153 75.1839 171.928 73.5393 169.861 74.2401C167.53 75.0321 164.518 76.6837 162.776 77.8658C162.516 78.041 161.832 77.9055 161.769 77.714C161.087 75.6091 168.083 73.0183 169.648 72.5324C172.84 71.5396 174.552 74.684 174.395 75.7189ZM169.522 49.9072C169.873 50.302 169.571 51.1523 168.915 51.498L164.605 47.1716C164.17 46.7347 163.729 43.352 169.52 49.9095L169.522 49.9072ZM143.767 42.6675C143.986 42.4806 144.61 42.3895 144.937 42.5204C149.906 44.5224 154.606 46.6553 159.349 49.0405C157.97 51.9419 157.93 60.8051 160.956 60.7958C163.357 60.7888 164.025 54.0771 163.834 51.8835L168.758 55.2405C167.766 59.8427 163.853 63.7977 158.935 63.9215C154.074 64.043 149.63 60.5925 148.035 56.175C146.815 52.7969 147.404 49.4866 148.271 46.132L143.921 43.9804C143.652 43.8473 143.549 42.8544 143.769 42.6699L143.767 42.6675ZM133.224 8.63497C134.31 9.31245 134.812 9.91283 135.49 10.8099C137.798 14.8584 139.601 19.0143 141.365 23.8992C135.871 26.1465 131.163 28.6158 126.145 32.1013C127.082 25.1513 129.353 14.6271 133.221 8.63497H133.224ZM111.731 59.4408C111.206 59.3754 110.83 58.8965 110.895 58.3709L110.909 58.2518C110.975 57.7261 111.453 57.35 111.979 57.4154L130.626 59.7095C131.152 59.7749 131.528 60.2538 131.462 60.7794L131.448 60.8986C131.383 61.4242 130.904 61.8003 130.378 61.7349L111.731 59.4408ZM114.787 73.2122C114.273 73.3431 113.75 73.0324 113.619 72.5161C113.488 72.0021 113.799 71.4789 114.315 71.348L130.416 67.2692C130.93 67.1383 131.453 67.4491 131.584 67.9653C131.715 68.4793 131.404 69.0026 130.888 69.1334L114.787 73.2122Z" fill="#1D1D1D"/>
<path d="M135.492 10.8099C134.815 9.9128 134.31 9.31242 133.226 8.63495C135.492 10.8099 139.604 19.0143 141.367 23.8991C139.604 19.0143 137.8 14.8584 135.492 10.8099Z" fill="#1D1D1D"/>
<path d="M131.584 67.9676C131.453 67.4537 130.932 67.143 130.416 67.2715L114.315 71.3503C113.801 71.4812 113.491 72.0044 113.619 72.5184C113.75 73.0323 114.271 73.343 114.787 73.2146L130.888 69.1357C131.402 69.0049 131.712 68.4816 131.584 67.9676Z" fill="white"/>
<path d="M110.891 58.3663L110.905 58.248C110.97 57.7217 111.449 57.3475 111.975 57.4122L130.622 59.705C131.148 59.7697 131.522 60.2488 131.458 60.7752L131.443 60.8934C131.378 61.4198 130.899 61.7939 130.373 61.7292L111.726 59.4364C111.2 59.3717 110.826 58.8926 110.891 58.3663Z" fill="white"/>
<path d="M161.769 77.7139C161.829 77.9055 162.514 78.041 162.776 77.8658C164.518 76.6837 167.53 75.0321 169.861 74.2401C171.928 73.5369 172.153 75.1816 173.522 76.3309C173.727 76.5038 174.356 75.9852 174.395 75.7189C174.55 74.684 172.84 71.5396 169.648 72.5324C168.083 73.0207 161.087 75.6091 161.769 77.7139Z" fill="white"/>
<path d="M168.915 51.498C169.571 51.1523 169.87 50.3043 169.522 49.9071C163.731 43.3497 164.173 46.7347 164.607 47.1692L168.917 51.4957L168.915 51.498Z" fill="white"/>
<path d="M57.1878 146.613C56.9658 148.01 56.4659 149.405 55.5128 150.512L43.2038 164.804C41.6292 166.634 40.849 168.575 40.4215 171.039C40.2813 171.037 40.1645 172.535 40.071 174.392C39.8842 178.186 42.9141 181.363 46.7103 181.363H67.8895C72.5407 181.571 72.9682 175.485 72.0315 172.728C71.0947 169.972 69.9406 168.743 66.065 167.699L61.596 167.234L68.0157 163.643C73.2836 160.697 80.3761 155.904 84.3054 151.143C74.8068 148.342 64.4858 144.067 59.9467 134.876L59.0029 135.222L57.1854 146.613H57.1878Z" fill="#1D1D1D"/>
</svg>
