<svg width="67" height="82" viewBox="0 0 67 82" fill="none" xmlns="http://www.w3.org/2000/svg">
<path d="M59.7817 47.8254C59.7817 33.1514 47.8861 21.2557 33.2121 21.2557C18.538 21.2557 6.64241 33.1514 6.64241 47.8254C6.64241 62.4994 18.538 74.395 33.2121 74.395V81.0374C14.8695 81.0374 0 66.1679 0 47.8254C0 29.4829 14.8695 14.6133 33.2121 14.6133C51.5546 14.6133 66.4241 29.4829 66.4241 47.8254C66.4241 66.1679 51.5546 81.0374 33.2121 81.0374V74.395C47.8861 74.395 59.7817 62.4994 59.7817 47.8254Z" fill="#1D1D1D"/>
<path d="M55.132 47.8254C55.132 35.7193 45.3181 25.9054 33.2121 25.9054V47.8254H55.132Z" fill="#1D1D1D"/>
<path d="M29.2266 9.29938H37.1975V18.5988H29.2266V9.29938Z" fill="#1D1D1D"/>
<path d="M50.4958 11.4467L57.3988 15.4321L52.0714 24.6595L45.1684 20.6741L50.4958 11.4467Z" fill="#1D1D1D"/>
<path d="M16.2024 11.4467L9.29938 15.4321L14.6268 24.6595L21.5298 20.6741L16.2024 11.4467Z" fill="#1D1D1D"/>
<path d="M22.5842 0H43.8399V11.2921H22.5842V0Z" fill="#1D1D1D"/>
</svg>
