<svg width="66" height="80" viewBox="0 0 66 80" fill="none" xmlns="http://www.w3.org/2000/svg">
<path d="M32.7871 14.4262C50.8947 14.4264 65.5742 29.1057 65.5742 47.2133C65.5741 65.3209 50.8946 80.0003 32.7871 80.0005C14.6795 80.0005 0.000121643 65.3209 0 47.2133C0 29.1056 14.6794 14.4262 32.7871 14.4262ZM32.7871 47.2133H56.3936C56.3936 34.1759 45.8245 23.607 32.7871 23.6069V47.2133Z" fill="#1D1D1D"/>
<path d="M28.8525 9.18033H36.7213V18.3607H28.8525V9.18033Z" fill="#1D1D1D"/>
<path d="M49.8494 11.3001L56.664 15.2345L51.4048 24.3438L44.5901 20.4094L49.8494 11.3001Z" fill="#1D1D1D"/>
<path d="M15.995 11.3001L9.18035 15.2345L14.4396 24.3438L21.2542 20.4094L15.995 11.3001Z" fill="#1D1D1D"/>
<path d="M22.2951 0H43.2787V11.1475H22.2951V0Z" fill="#1D1D1D"/>
</svg>
